<svg width="22" height="24" viewBox="0 0 22 24" fill="none" xmlns="http://www.w3.org/2000/svg">
<path fill-rule="evenodd" clip-rule="evenodd" d="M11.0245 0C8.12353 0 5.48007 0.99475 3.91622 1.80748C3.77493 1.88082 3.64327 1.95283 3.5206 2.02217C3.27783 2.15951 3.07103 2.28752 2.90662 2.4002L4.68562 5.11909L5.5231 5.46512C8.79596 7.17926 13.185 7.17926 16.4585 5.46512L17.409 4.95308L19.0917 2.4002C18.7431 2.16418 18.3806 1.95107 18.0063 1.76215C16.4508 0.95808 13.8709 0 11.0245 0ZM6.88658 3.07759C6.25662 2.95521 5.63442 2.79312 5.02344 2.59222C6.48839 1.91683 8.67201 1.2001 11.0239 1.2001C12.6533 1.2001 14.194 1.54413 15.4682 1.98017C13.975 2.19818 12.3816 2.56821 10.8633 3.02359C9.66876 3.38228 8.27253 3.34361 6.88658 3.07759ZM17.1367 6.45387L16.9794 6.53654C13.3783 8.42203 8.60264 8.42203 5.0016 6.53654L4.85261 6.45787C-0.556339 12.6191 -4.68594 24 11.0245 24C26.7337 24 22.5033 12.4064 17.1367 6.45387ZM10.3566 12.001C10.0159 12.001 9.68922 12.1415 9.44834 12.3916C9.20745 12.6416 9.07212 12.9808 9.07212 13.3344C9.07212 13.6881 9.20745 14.0273 9.44834 14.2773C9.68922 14.5274 10.0159 14.6679 10.3566 14.6679V12.001ZM11.6411 10.6676V10.0008H10.3566V10.6676C9.67527 10.6676 9.02185 10.9485 8.54007 11.4487C8.0583 11.9488 7.78764 12.6271 7.78764 13.3344C7.78764 14.0417 8.0583 14.7201 8.54007 15.2202C9.02185 15.7204 9.67527 16.0013 10.3566 16.0013V18.6682C10.091 18.6683 9.83184 18.5829 9.61491 18.4237C9.39798 18.2645 9.23393 18.0395 9.14534 17.7795C9.08862 17.6127 8.97041 17.4762 8.81673 17.3999C8.66304 17.3237 8.48646 17.3139 8.32584 17.3728C8.16521 17.4317 8.0337 17.5544 7.96023 17.7139C7.88676 17.8735 7.87735 18.0568 7.93407 18.2235C8.11123 18.7435 8.43931 19.1938 8.87316 19.5122C9.307 19.8307 9.82527 20.0017 10.3566 20.0017V20.6684H11.6411V20.0017C12.3224 20.0017 12.9758 19.7207 13.4576 19.2206C13.9394 18.7204 14.21 18.0421 14.21 17.3348C14.21 16.6275 13.9394 15.9491 13.4576 15.449C12.9758 14.9489 12.3224 14.6679 11.6411 14.6679V12.001C12.1998 12.001 12.6757 12.371 12.853 12.8897C12.8793 12.9746 12.9217 13.0531 12.9778 13.1207C13.0338 13.1882 13.1023 13.2434 13.1793 13.283C13.2562 13.3226 13.34 13.3457 13.4258 13.3511C13.5115 13.3564 13.5974 13.3439 13.6783 13.3142C13.7593 13.2845 13.8337 13.2382 13.8971 13.1782C13.9606 13.1181 14.0118 13.0454 14.0477 12.9645C14.0836 12.8835 14.1036 12.7959 14.1063 12.7067C14.109 12.6176 14.0945 12.5289 14.0636 12.4457C13.8865 11.9257 13.5584 11.4754 13.1245 11.157C12.6907 10.8386 12.1724 10.6676 11.6411 10.6676ZM11.6411 16.0013V18.6682C11.9817 18.6682 12.3085 18.5277 12.5493 18.2777C12.7902 18.0276 12.9256 17.6884 12.9256 17.3348C12.9256 16.9811 12.7902 16.642 12.5493 16.3919C12.3085 16.1418 11.9817 16.0013 11.6411 16.0013Z" fill="#FFFBE5"/>
</svg>
