<svg width="24" height="23" viewBox="0 0 24 23" fill="none" xmlns="http://www.w3.org/2000/svg">
<path d="M23.8687 18.2632C23.8687 19.5194 23.3658 20.7243 22.4705 21.6126C21.5753 22.5009 20.3611 23 19.095 23H15.5147C14.2486 23 13.0344 22.5009 12.1391 21.6126C11.2439 20.7243 10.7409 19.5194 10.7409 18.2632V15.8947H18.8444L22.1382 10.2461L24 11.3118L21.3267 15.8947H23.8687V18.2632ZM8.35405 23H0C0 19.4474 -1.06701e-07 15.8947 0.393834 12.1408C0.716062 9.14474 1.28891 6.01842 1.9095 2.86842H1.19344V0.5H7.16062V2.86842H6.44455C7.06514 6.01842 7.63799 9.14474 7.96022 12.1408C8.35405 15.8947 8.35405 19.4474 8.35405 23Z" fill="#FFFBE5"/>
</svg>
