<svg width="18" height="18" viewBox="0 0 18 18" fill="none" xmlns="http://www.w3.org/2000/svg">
<g clip-path="url(#clip0_227_769)">
<path d="M17 2.00618C16.9246 1.99794 16.8487 1.99794 16.7733 2.00618H1.29302C1.1938 2.00781 1.09525 2.0236 1 2.05314L8.98894 10.5L17 2.00618Z" fill="#FFFBE5"/>
<path d="M17.9325 3L9.7425 11.337C9.53172 11.5512 9.24658 11.6714 8.94938 11.6714C8.65217 11.6714 8.36703 11.5512 8.15625 11.337L0.039375 3.06325C0.0144222 3.15699 0.00119176 3.25359 0 3.35073V14.8501C0 15.155 0.118526 15.4475 0.329505 15.6632C0.540483 15.8788 0.826631 16 1.125 16H16.875C17.1734 16 17.4595 15.8788 17.6705 15.6632C17.8815 15.4475 18 15.155 18 14.8501V3.35073C17.9955 3.23094 17.9727 3.1126 17.9325 3ZM1.89563 14.8501H1.11375V14.0279L5.20312 9.88235L5.99625 10.6931L1.89563 14.8501ZM16.8638 14.8501H16.0763L11.9756 10.6931L12.7687 9.88235L16.8581 14.0279L16.8638 14.8501Z" fill="#FFFBE5"/>
</g>
<defs>
<clipPath id="clip0_227_769">
<rect width="18" height="18" fill="white"/>
</clipPath>
</defs>
</svg>
