<svg width="23" height="24" viewBox="0 0 23 24" fill="none" xmlns="http://www.w3.org/2000/svg">
<path d="M22.9484 1.52343L22.8054 0L21.3751 0.483627C18.924 1.34756 16.3065 1.61268 13.7353 1.25743C11.0335 0.832094 8.26817 1.21006 5.77371 2.34559C4.45131 2.91681 3.29077 3.81451 2.39774 4.95695C1.5047 6.09939 0.907548 7.45029 0.660635 8.88665C0.340477 10.7422 0.500642 12.6503 1.12546 14.4242C1.52778 13.503 1.9979 12.6138 2.53185 11.7642C3.74302 9.95648 5.42125 8.52173 7.38271 7.61713C9.27233 6.74191 11.3378 6.32783 13.4135 6.40806C11.4374 6.71456 9.54593 7.43514 7.85946 8.52393C7.04598 9.04244 6.30102 9.66408 5.6426 10.3738C5.0129 11.0832 4.45768 11.8571 3.98592 12.6831C3.09981 14.4097 2.4693 16.2593 2.1147 18.1723C1.73249 20.0915 1.52503 22.0423 1.49494 24H3.87865C3.99068 22.2442 4.22568 20.4988 4.58185 18.7768C6.23547 19.6827 8.0899 20.1446 9.96904 20.1189C11.7216 20.1177 13.4562 19.76 15.0702 19.067C24.1402 15.1375 22.9484 2.06751 22.9484 1.52343Z" fill="#FFFBE5"/>
</svg>
