<svg width="18" height="18" viewBox="0 0 18 18" fill="none" xmlns="http://www.w3.org/2000/svg">
<path d="M12.75 5.06833C12.75 6.69191 10.4656 9.58523 9.4625 10.7776C9.22187 11.0631 8.775 11.0631 8.5375 10.7776C7.53438 9.58523 5.25 6.69191 5.25 5.06833C5.25 3.09683 6.92812 1.5 9 1.5C11.0719 1.5 12.75 3.09683 12.75 5.06833ZM13 7.4591C13.1094 7.25392 13.2094 7.04875 13.3 6.84654C13.3156 6.81086 13.3313 6.7722 13.3469 6.73652L16.9719 5.35677C17.4656 5.16943 18 5.51437 18 6.01988V14.0724C18 14.3638 17.8125 14.6255 17.5281 14.7355L13 16.4572V7.4591ZM4.3 5.6125C4.375 6.03177 4.525 6.45403 4.7 6.84654C4.79062 7.04875 4.89062 7.25392 5 7.4591V14.9347L1.02813 16.4483C0.534375 16.6356 0 16.2907 0 15.7852V7.73268C0 7.44126 0.1875 7.17958 0.471875 7.06956L4.30312 5.6125H4.3ZM10.2437 11.3724C10.6781 10.855 11.3594 10.0134 12 9.08269V16.4959L6 14.8634V9.08269C6.64062 10.0134 7.32188 10.855 7.75625 11.3724C8.39688 12.1336 9.60312 12.1336 10.2437 11.3724ZM9 6.01988C9.69063 6.01988 10.25 5.4876 10.25 4.83044C10.25 4.17327 9.69063 3.641 9 3.641C8.30937 3.641 7.75 4.17327 7.75 4.83044C7.75 5.4876 8.30937 6.01988 9 6.01988Z" fill="#FFFBE5"/>
</svg>
