<svg width="18" height="18" viewBox="0 0 18 18" fill="none" xmlns="http://www.w3.org/2000/svg">
<g clip-path="url(#clip0_227_764)">
<path d="M14.625 6.75H13.275C13.2745 6.2131 13.0609 5.69835 12.6813 5.3187C12.3017 4.93906 11.7869 4.72554 11.25 4.725V3.375C12.1448 3.37607 13.0026 3.732 13.6353 4.3647C14.268 4.9974 14.6239 5.85522 14.625 6.75Z" fill="#FFFBE5"/>
<path d="M17.3077 6.9233H15.923C15.9215 5.63843 15.4105 4.40661 14.5019 3.49807C13.5934 2.58952 12.3615 2.07846 11.0767 2.077V0.692336C12.7287 0.694168 14.3125 1.35123 15.4806 2.51937C16.6488 3.6875 17.3058 5.27131 17.3077 6.9233ZM11.9995 12.7956L13.5504 11.2448C13.758 11.0372 14.0219 10.895 14.3095 10.836C14.5971 10.7769 14.8957 10.8035 15.1684 10.9125L17.057 11.6685C17.3354 11.7799 17.574 11.9721 17.7421 12.2204C17.9102 12.4687 18 12.7617 18 13.0615V16.4961C18.0005 16.7003 17.9593 16.9024 17.879 17.0901C17.7986 17.2777 17.6809 17.447 17.5328 17.5876C17.3848 17.7282 17.2096 17.8371 17.0181 17.9076C16.8265 17.9781 16.6226 18.0088 16.4187 17.9978C3.17991 17.1739 0.506125 5.96097 0.00972185 1.66714C-0.0143204 1.45722 0.00635211 1.24459 0.0703798 1.04323C0.134407 0.84188 0.240339 0.656361 0.381208 0.498883C0.522076 0.341404 0.694689 0.215532 0.887693 0.129548C1.0807 0.0435641 1.28972 -0.000584625 1.50101 5.84564e-06H4.87475C5.17457 -3.78192e-06 5.46753 0.0898228 5.71582 0.257898C5.96411 0.425974 6.15634 0.664588 6.26772 0.942959L7.02306 2.83163C7.13206 3.10426 7.15868 3.40287 7.0996 3.69047C7.04053 3.97807 6.89837 4.24202 6.69074 4.44961L5.13991 6.00043C5.13991 6.00043 5.99979 12.0459 11.9995 12.7956Z" fill="#FFFBE5"/>
</g>
<defs>
<clipPath id="clip0_227_764">
<rect width="18" height="18" fill="white"/>
</clipPath>
</defs>
</svg>
